<svg xmlns="http://www.w3.org/2000/svg" width="720" height="820" viewBox="0 0 720 820" role="img" aria-labelledby="title desc">
<title id="title">Profile placeholder for Tanvir</title>
<desc id="desc">Replace this branded placeholder with the approved team photograph.</desc>
<defs>
  <linearGradient id="bg" x1="0" y1="0" x2="1" y2="1"><stop stop-color="#11150d"/><stop offset=".62" stop-color="#65723d"/><stop offset="1" stop-color="#bdc78d"/></linearGradient>
  <radialGradient id="glow" cx="50%" cy="35%" r="70%"><stop stop-color="#fff" stop-opacity=".28"/><stop offset="1" stop-color="#fff" stop-opacity="0"/></radialGradient>
  <pattern id="grid" width="44" height="44" patternUnits="userSpaceOnUse"><path d="M44 0H0V44" fill="none" stroke="#fff" stroke-opacity=".075"/></pattern>
  <filter id="shadow" x="-30%" y="-30%" width="160%" height="160%"><feDropShadow dx="0" dy="18" stdDeviation="22" flood-color="#000" flood-opacity=".22"/></filter>
</defs>
<rect width="720" height="820" rx="48" fill="url(#bg)"/>
<rect width="720" height="820" rx="48" fill="url(#grid)"/>
<circle cx="575" cy="170" r="210" fill="url(#glow)"/>
<path d="M84 626C171 539 255 521 360 521s189 18 276 105v194H84Z" fill="#f6f7ef" fill-opacity=".94" filter="url(#shadow)"/>
<circle cx="360" cy="315" r="137" fill="#f6f7ef" fill-opacity=".95" filter="url(#shadow)"/>
<path d="M267 292c19-104 171-132 211-17-29-32-72-49-116-43-38 5-69 25-95 60Z" fill="#11150d" fill-opacity=".82"/>
<circle cx="315" cy="321" r="8" fill="#11150d" fill-opacity=".65"/><circle cx="405" cy="321" r="8" fill="#11150d" fill-opacity=".65"/>
<path d="M324 379c22 18 50 18 72 0" fill="none" stroke="#11150d" stroke-opacity=".55" stroke-width="8" stroke-linecap="round"/>
<g opacity=".7" fill="none" stroke="#fff"><circle cx="604" cy="658" r="54" stroke-opacity=".18"/><circle cx="604" cy="658" r="34" stroke-opacity=".22"/><path d="M550 658h108M604 604v108" stroke-opacity=".16"/></g>
<rect x="50" y="50" width="102" height="44" rx="22" fill="#fff" fill-opacity=".14" stroke="#fff" stroke-opacity=".18"/>
<text x="101" y="80" text-anchor="middle" font-family="Arial, Helvetica, sans-serif" font-size="20" font-weight="700" fill="#fff">NEXUS</text>
<circle cx="92" cy="716" r="43" fill="#11150d" fill-opacity=".92" stroke="#fff" stroke-opacity=".35"/>
<text x="92" y="726" text-anchor="middle" font-family="Arial, Helvetica, sans-serif" font-size="27" font-weight="800" fill="#fff">T</text>
<text x="360" y="786" text-anchor="middle" font-family="Arial, Helvetica, sans-serif" font-size="16" font-weight="700" letter-spacing="3" fill="#fff" fill-opacity=".72">TEAM PHOTO PLACEHOLDER</text>
</svg>